<svg width="251" height="132" viewBox="0 0 251 132" fill="none" xmlns="http://www.w3.org/2000/svg">
<path d="M13.3794 31.48C13.3794 33.4533 13.8594 35.2133 14.8194 36.76C15.8327 38.2533 17.0594 39.56 18.4994 40.68C19.9927 41.8 21.9927 43.1333 24.4994 44.68C27.2194 46.3867 29.3527 47.8533 30.8994 49.08C32.4994 50.3067 33.8327 51.8267 34.8994 53.64C36.0194 55.4 36.5794 57.48 36.5794 59.88C36.5794 62.6 35.8594 65.0267 34.4194 67.16C33.0327 69.2933 31.0327 70.9733 28.4194 72.2C25.8594 73.3733 22.926 73.96 19.6194 73.96C17.3794 73.96 15.0594 73.6667 12.6594 73.08C10.3127 72.4933 8.52604 71.7733 7.29938 70.92C6.81938 70.6 6.55271 70.0933 6.49938 69.4L6.01938 57.24V57.16C6.01938 56.9467 6.15271 56.84 6.41938 56.84C6.68604 56.7867 6.84604 56.8667 6.89938 57.08C8.65938 61.5067 10.6594 65.1333 12.8994 67.96C15.1927 70.7867 18.0994 72.2 21.6194 72.2C23.9127 72.2 25.8327 71.5867 27.3794 70.36C28.926 69.08 29.6994 66.9733 29.6994 64.04C29.6994 61.6933 29.166 59.64 28.0994 57.88C27.086 56.12 25.806 54.6533 24.2594 53.48C22.766 52.3067 20.7127 50.8667 18.0994 49.16C15.5394 47.5067 13.5394 46.12 12.0994 45C10.6594 43.8267 9.43271 42.4133 8.41938 40.76C7.40604 39.0533 6.89938 37.08 6.89938 34.84C6.89938 32.0667 7.67271 29.72 9.21938 27.8C10.766 25.88 12.766 24.4667 15.2194 23.56C17.726 22.6 20.3394 22.12 23.0594 22.12C24.8727 22.12 26.686 22.3067 28.4994 22.68C30.3127 23 31.8327 23.4267 33.0594 23.96C33.8594 24.28 34.2594 24.7867 34.2594 25.48L34.4994 36.36C34.4994 36.52 34.3394 36.6267 34.0194 36.68C33.7527 36.7333 33.5927 36.68 33.5394 36.52C32.4727 33.2667 31.0327 30.3333 29.2194 27.72C27.4594 25.0533 24.7927 23.72 21.2194 23.72C18.8194 23.72 16.8994 24.4133 15.4594 25.8C14.0727 27.1867 13.3794 29.08 13.3794 31.48ZM70.7263 67.96C70.8329 67.96 70.9396 68.0667 71.0463 68.28C71.2063 68.4933 71.2329 68.6533 71.1263 68.76C69.1529 70.5733 67.1796 71.9067 65.2063 72.76C63.2329 73.56 61.0996 73.96 58.8063 73.96C55.5529 73.96 52.7263 73.24 50.3263 71.8C47.9796 70.36 46.1663 68.4667 44.8863 66.12C43.6596 63.7733 43.0462 61.24 43.0462 58.52C43.0462 55.3733 43.8196 52.4933 45.3663 49.88C46.9129 47.2667 49.0196 45.2133 51.6863 43.72C54.4063 42.1733 57.4196 41.4 60.7263 41.4C63.9263 41.4 66.4063 42.1733 68.1663 43.72C69.9263 45.2667 70.8063 47.56 70.8063 50.6C70.8063 52.1467 70.4863 52.92 69.8463 52.92L50.3263 53C50.2729 53.48 50.2463 54.2 50.2463 55.16C50.2463 59.8533 51.3129 63.5867 53.4463 66.36C55.6329 69.08 58.7263 70.44 62.7263 70.44C64.2196 70.44 65.4729 70.28 66.4863 69.96C67.4996 69.5867 68.8596 68.9467 70.5663 68.04L70.7263 67.96ZM57.8463 43C55.8729 43 54.2463 43.7733 52.9663 45.32C51.7396 46.8133 50.9129 48.8933 50.4863 51.56L63.2863 51.32C63.1796 45.7733 61.3663 43 57.8463 43ZM96.4894 41.32C97.716 41.32 98.8894 41.72 100.009 42.52C101.129 43.32 101.689 44.28 101.689 45.4C101.689 46.4133 101.369 47.24 100.729 47.88C100.143 48.52 99.316 48.84 98.2494 48.84C97.556 48.84 96.9694 48.7067 96.4894 48.44C96.0627 48.12 95.6094 47.6933 95.1294 47.16C94.6494 46.68 94.2227 46.3333 93.8494 46.12C93.476 45.8533 93.0227 45.72 92.4894 45.72C91.9027 45.72 91.2627 45.96 90.5694 46.44C89.9294 46.8667 88.916 47.8 87.5294 49.24V66.52C87.5294 68.0133 87.7427 69.16 88.1694 69.96C88.596 70.7067 89.316 71.24 90.3294 71.56C91.3427 71.88 92.836 72.04 94.8094 72.04C95.0227 72.04 95.1294 72.2 95.1294 72.52C95.1294 72.84 95.0227 73 94.8094 73C93.0494 73 91.636 72.9733 90.5694 72.92L84.2494 72.84L79.6094 72.92C78.8627 72.9733 77.8227 73 76.4894 73C76.3294 73 76.2494 72.84 76.2494 72.52C76.2494 72.2 76.3294 72.04 76.4894 72.04C78.3027 72.04 79.5027 71.6667 80.0894 70.92C80.676 70.1733 80.9694 68.7067 80.9694 66.52V51.24C80.9694 49.5333 80.756 48.28 80.3294 47.48C79.956 46.68 79.316 46.28 78.4094 46.28C77.6094 46.28 76.276 46.68 74.4094 47.48H74.3294C74.116 47.48 73.956 47.3467 73.8494 47.08C73.7427 46.8133 73.7694 46.6533 73.9294 46.6L84.4094 41.48C84.7294 41.3733 84.916 41.32 84.9694 41.32C85.5027 41.32 86.036 41.9067 86.5694 43.08C87.1027 44.2 87.4227 45.6933 87.5294 47.56C89.6094 45.2133 91.3427 43.5867 92.7294 42.68C94.116 41.7733 95.3694 41.32 96.4894 41.32ZM138.411 42.12C138.518 42.12 138.571 42.28 138.571 42.6C138.571 42.92 138.518 43.08 138.411 43.08C136.918 43.08 135.611 43.6133 134.491 44.68C133.425 45.7467 132.385 47.4533 131.371 49.8L121.451 73C121.345 73.2667 121.078 73.4 120.651 73.4C120.171 73.4 119.851 73.2667 119.691 73L107.851 48.76C106.731 46.4133 105.771 44.8933 104.971 44.2C104.171 43.4533 103.185 43.08 102.011 43.08C101.851 43.08 101.771 42.92 101.771 42.6C101.771 42.28 101.851 42.12 102.011 42.12C102.971 42.12 103.745 42.1467 104.331 42.2L108.971 42.28L114.891 42.2C115.745 42.1467 116.918 42.12 118.411 42.12C118.571 42.12 118.651 42.28 118.651 42.6C118.651 42.92 118.571 43.08 118.411 43.08C115.265 43.08 113.691 43.6933 113.691 44.92C113.691 45.24 113.825 45.6667 114.091 46.2L123.291 64.36L129.371 49.64C129.745 48.7333 129.931 47.8533 129.931 47C129.931 45.72 129.451 44.76 128.491 44.12C127.585 43.4267 126.225 43.08 124.411 43.08C124.305 43.08 124.251 42.92 124.251 42.6C124.251 42.28 124.305 42.12 124.411 42.12C125.851 42.12 126.945 42.1467 127.691 42.2L132.491 42.28L135.611 42.2C136.198 42.1467 137.131 42.12 138.411 42.12ZM148.289 32.92C146.903 32.92 145.809 32.5467 145.009 31.8C144.263 31.0533 143.889 29.9867 143.889 28.6C143.889 27.2667 144.263 26.2533 145.009 25.56C145.809 24.8133 146.903 24.44 148.289 24.44C149.623 24.44 150.663 24.8133 151.409 25.56C152.156 26.2533 152.529 27.2667 152.529 28.6C152.529 29.9867 152.156 31.0533 151.409 31.8C150.716 32.5467 149.676 32.92 148.289 32.92ZM140.929 73C140.769 73 140.689 72.84 140.689 72.52C140.689 72.2 140.769 72.04 140.929 72.04C142.743 72.04 143.943 71.6667 144.529 70.92C145.116 70.1733 145.409 68.7067 145.409 66.52V51.96C145.409 50.1467 145.223 48.84 144.849 48.04C144.476 47.1867 143.836 46.76 142.929 46.76C142.129 46.76 141.089 47.08 139.809 47.72H139.729C139.516 47.72 139.356 47.5867 139.249 47.32C139.143 47.0533 139.169 46.8667 139.329 46.76L150.849 41.4L151.089 41.32C151.303 41.32 151.516 41.4533 151.729 41.72C151.996 41.9333 152.129 42.12 152.129 42.28V43.96C152.023 46.2 151.969 48.84 151.969 51.88V66.52C151.969 68.7067 152.263 70.1733 152.849 70.92C153.489 71.6667 154.716 72.04 156.529 72.04C156.689 72.04 156.769 72.2 156.769 72.52C156.769 72.84 156.689 73 156.529 73C155.196 73 154.129 72.9733 153.329 72.92L148.689 72.84L144.049 72.92C143.303 72.9733 142.263 73 140.929 73ZM176.899 73.96C173.433 73.96 170.473 73.2133 168.019 71.72C165.619 70.1733 163.833 68.2 162.659 65.8C161.486 63.3467 160.899 60.7867 160.899 58.12C160.899 54.76 161.806 51.8267 163.619 49.32C165.433 46.76 167.753 44.8133 170.579 43.48C173.459 42.0933 176.366 41.4 179.299 41.4C181.806 41.4 184.073 41.9067 186.099 42.92C188.126 43.9333 189.139 45.2933 189.139 47C189.139 47.9067 188.793 48.7067 188.099 49.4C187.406 50.04 186.446 50.36 185.219 50.36C183.193 50.36 181.726 49.16 180.819 46.76C180.286 45.4267 179.726 44.4933 179.139 43.96C178.553 43.3733 177.619 43.08 176.339 43.08C173.833 43.08 171.833 44.2267 170.339 46.52C168.899 48.76 168.179 51.7733 168.179 55.56C168.179 59.9867 169.193 63.5867 171.219 66.36C173.299 69.08 176.526 70.44 180.899 70.44C182.393 70.44 183.726 70.2533 184.899 69.88C186.073 69.5067 187.353 68.92 188.739 68.12H188.819C188.979 68.12 189.113 68.2 189.219 68.36C189.379 68.52 189.406 68.6533 189.299 68.76C187.326 70.52 185.379 71.8267 183.459 72.68C181.539 73.5333 179.353 73.96 176.899 73.96ZM221.304 67.96C221.411 67.96 221.518 68.0667 221.624 68.28C221.784 68.4933 221.811 68.6533 221.704 68.76C219.731 70.5733 217.758 71.9067 215.784 72.76C213.811 73.56 211.678 73.96 209.384 73.96C206.131 73.96 203.304 73.24 200.904 71.8C198.558 70.36 196.744 68.4667 195.464 66.12C194.238 63.7733 193.624 61.24 193.624 58.52C193.624 55.3733 194.398 52.4933 195.944 49.88C197.491 47.2667 199.598 45.2133 202.264 43.72C204.984 42.1733 207.998 41.4 211.304 41.4C214.504 41.4 216.984 42.1733 218.744 43.72C220.504 45.2667 221.384 47.56 221.384 50.6C221.384 52.1467 221.064 52.92 220.424 52.92L200.904 53C200.851 53.48 200.824 54.2 200.824 55.16C200.824 59.8533 201.891 63.5867 204.024 66.36C206.211 69.08 209.304 70.44 213.304 70.44C214.798 70.44 216.051 70.28 217.064 69.96C218.078 69.5867 219.438 68.9467 221.144 68.04L221.304 67.96ZM208.424 43C206.451 43 204.824 43.7733 203.544 45.32C202.318 46.8133 201.491 48.8933 201.064 51.56L213.864 51.32C213.758 45.7733 211.944 43 208.424 43ZM232.748 46.28C232.748 47.9333 233.308 49.32 234.428 50.44C235.601 51.56 237.281 52.7333 239.468 53.96C241.388 55.0267 242.854 55.9067 243.868 56.6C244.934 57.2933 245.841 58.2267 246.588 59.4C247.388 60.5733 247.788 61.9867 247.788 63.64C247.788 65.4533 247.334 67.1333 246.428 68.68C245.521 70.2267 244.161 71.48 242.348 72.44C240.588 73.4 238.481 73.88 236.028 73.88C233.094 73.88 230.401 73.1333 227.948 71.64C227.628 71.32 227.468 71 227.468 70.68L227.308 63.32C227.308 63.16 227.441 63.08 227.708 63.08C228.028 63.0267 228.214 63.0533 228.268 63.16C229.174 65.8267 230.534 68.0133 232.348 69.72C234.214 71.4267 236.188 72.28 238.268 72.28C239.601 72.28 240.641 71.9333 241.388 71.24C242.134 70.5467 242.508 69.5067 242.508 68.12C242.508 66.0933 241.921 64.4933 240.748 63.32C239.574 62.0933 237.868 60.8933 235.628 59.72C233.814 58.76 232.401 57.96 231.388 57.32C230.374 56.6267 229.494 55.72 228.748 54.6C228.054 53.4267 227.708 51.9867 227.708 50.28C227.708 47.24 228.801 44.9733 230.988 43.48C233.228 41.9867 235.921 41.24 239.068 41.24C241.148 41.24 243.281 41.64 245.468 42.44C245.948 42.6533 246.188 42.9467 246.188 43.32C246.188 44.5467 246.161 45.5067 246.108 46.2L246.028 50.04C246.028 50.2 245.868 50.28 245.548 50.28C245.228 50.28 245.068 50.2 245.068 50.04C245.068 48.9733 244.641 47.88 243.788 46.76C242.934 45.5867 241.841 44.6267 240.508 43.88C239.174 43.1333 237.814 42.76 236.428 42.76C233.974 42.76 232.748 43.9333 232.748 46.28Z" fill="white"/>
<path d="M48.1646 126V111.6H49.9446V117.95H57.5246V111.6H59.3046V126H57.5246V119.64H49.9446V126H48.1646ZM66.7399 126.3C65.6666 126.3 64.7399 126.057 63.9599 125.57C63.1866 125.083 62.5899 124.41 62.1699 123.55C61.7499 122.69 61.5399 121.703 61.5399 120.59C61.5399 119.457 61.7533 118.463 62.1799 117.61C62.6066 116.757 63.2099 116.093 63.9899 115.62C64.7699 115.14 65.6866 114.9 66.7399 114.9C67.8199 114.9 68.7499 115.143 69.5299 115.63C70.3099 116.11 70.9066 116.78 71.3199 117.64C71.7399 118.493 71.9499 119.477 71.9499 120.59C71.9499 121.717 71.7399 122.71 71.3199 123.57C70.8999 124.423 70.2999 125.093 69.5199 125.58C68.7399 126.06 67.8133 126.3 66.7399 126.3ZM66.7399 124.61C67.8599 124.61 68.6933 124.237 69.2399 123.49C69.7866 122.743 70.0599 121.777 70.0599 120.59C70.0599 119.37 69.7833 118.4 69.2299 117.68C68.6766 116.953 67.8466 116.59 66.7399 116.59C65.9866 116.59 65.3666 116.76 64.8799 117.1C64.3933 117.44 64.0299 117.91 63.7899 118.51C63.5499 119.11 63.4299 119.803 63.4299 120.59C63.4299 121.803 63.7099 122.777 64.2699 123.51C64.8299 124.243 65.6533 124.61 66.7399 124.61ZM87.0916 126L87.1016 119.09C87.1016 118.283 86.885 117.653 86.4516 117.2C86.025 116.74 85.4683 116.51 84.7816 116.51C84.3816 116.51 84.0016 116.603 83.6416 116.79C83.2816 116.97 82.9883 117.257 82.7616 117.65C82.535 118.037 82.4216 118.533 82.4216 119.14L81.4816 118.76C81.4683 117.993 81.625 117.323 81.9516 116.75C82.285 116.17 82.7383 115.72 83.3116 115.4C83.885 115.08 84.5316 114.92 85.2516 114.92C86.3783 114.92 87.265 115.263 87.9116 115.95C88.5583 116.63 88.8816 117.547 88.8816 118.7L88.8716 126H87.0916ZM74.1716 126V115.2H75.7616V118.09H75.9616V126H74.1716ZM80.6416 126L80.6516 119.16C80.6516 118.333 80.4383 117.687 80.0116 117.22C79.585 116.747 79.0183 116.51 78.3116 116.51C77.6116 116.51 77.045 116.75 76.6116 117.23C76.1783 117.71 75.9616 118.347 75.9616 119.14L75.0216 118.58C75.0216 117.88 75.1883 117.253 75.5216 116.7C75.855 116.147 76.3083 115.713 76.8816 115.4C77.455 115.08 78.105 114.92 78.8316 114.92C79.5583 114.92 80.1916 115.073 80.7316 115.38C81.2716 115.687 81.6883 116.127 81.9816 116.7C82.275 117.267 82.4216 117.943 82.4216 118.73L82.4116 126H80.6416ZM96.0987 126.3C95.0387 126.3 94.112 126.067 93.3187 125.6C92.532 125.127 91.9187 124.47 91.4787 123.63C91.0387 122.783 90.8187 121.797 90.8187 120.67C90.8187 119.49 91.0353 118.47 91.4687 117.61C91.902 116.743 92.5053 116.077 93.2787 115.61C94.0587 115.137 94.972 114.9 96.0187 114.9C97.1053 114.9 98.0287 115.15 98.7887 115.65C99.5553 116.15 100.129 116.863 100.509 117.79C100.895 118.717 101.062 119.82 101.009 121.1H99.2087V120.46C99.1887 119.133 98.9187 118.143 98.3987 117.49C97.8787 116.83 97.1053 116.5 96.0787 116.5C94.9787 116.5 94.142 116.853 93.5687 117.56C92.9953 118.267 92.7087 119.28 92.7087 120.6C92.7087 121.873 92.9953 122.86 93.5687 123.56C94.142 124.26 94.9587 124.61 96.0187 124.61C96.732 124.61 97.352 124.447 97.8787 124.12C98.4053 123.793 98.8187 123.323 99.1187 122.71L100.829 123.3C100.409 124.253 99.7753 124.993 98.9287 125.52C98.0887 126.04 97.1453 126.3 96.0987 126.3ZM92.1087 121.1V119.67H100.089V121.1H92.1087ZM112.649 122.2C112.176 122.2 111.746 122.09 111.359 121.87C110.979 121.65 110.672 121.353 110.439 120.98C110.212 120.6 110.099 120.173 110.099 119.7C110.099 119.227 110.212 118.8 110.439 118.42C110.672 118.04 110.979 117.743 111.359 117.53C111.746 117.31 112.176 117.2 112.649 117.2C113.089 117.2 113.496 117.31 113.869 117.53C114.242 117.743 114.539 118.04 114.759 118.42C114.986 118.8 115.099 119.227 115.099 119.7C115.099 120.173 114.986 120.6 114.759 120.98C114.539 121.353 114.242 121.65 113.869 121.87C113.496 122.09 113.089 122.2 112.649 122.2ZM129.871 126.3C128.851 126.3 127.931 126.127 127.111 125.78C126.298 125.433 125.625 124.94 125.091 124.3C124.565 123.653 124.221 122.89 124.061 122.01L125.901 121.72C126.135 122.627 126.618 123.337 127.351 123.85C128.091 124.357 128.961 124.61 129.961 124.61C130.608 124.61 131.191 124.51 131.711 124.31C132.238 124.103 132.655 123.81 132.961 123.43C133.268 123.05 133.421 122.6 133.421 122.08C133.421 121.76 133.365 121.487 133.251 121.26C133.145 121.027 132.995 120.83 132.801 120.67C132.615 120.503 132.401 120.363 132.161 120.25C131.921 120.137 131.671 120.043 131.411 119.97L127.741 118.88C127.341 118.76 126.955 118.61 126.581 118.43C126.208 118.243 125.875 118.013 125.581 117.74C125.288 117.46 125.055 117.127 124.881 116.74C124.708 116.347 124.621 115.883 124.621 115.35C124.621 114.497 124.841 113.77 125.281 113.17C125.728 112.563 126.331 112.1 127.091 111.78C127.851 111.46 128.708 111.303 129.661 111.31C130.628 111.317 131.491 111.49 132.251 111.83C133.018 112.163 133.651 112.643 134.151 113.27C134.658 113.897 134.998 114.647 135.171 115.52L133.281 115.85C133.181 115.263 132.958 114.76 132.611 114.34C132.271 113.913 131.845 113.587 131.331 113.36C130.818 113.127 130.255 113.007 129.641 113C129.055 112.993 128.525 113.087 128.051 113.28C127.578 113.473 127.201 113.743 126.921 114.09C126.641 114.43 126.501 114.823 126.501 115.27C126.501 115.71 126.628 116.067 126.881 116.34C127.135 116.607 127.445 116.82 127.811 116.98C128.185 117.133 128.548 117.26 128.901 117.36L131.641 118.15C131.955 118.237 132.315 118.357 132.721 118.51C133.135 118.663 133.535 118.88 133.921 119.16C134.308 119.433 134.628 119.8 134.881 120.26C135.135 120.713 135.261 121.287 135.261 121.98C135.261 122.673 135.121 123.29 134.841 123.83C134.568 124.37 134.185 124.823 133.691 125.19C133.198 125.55 132.625 125.823 131.971 126.01C131.318 126.203 130.618 126.3 129.871 126.3ZM142.069 126.3C141.009 126.3 140.082 126.067 139.289 125.6C138.502 125.127 137.889 124.47 137.449 123.63C137.009 122.783 136.789 121.797 136.789 120.67C136.789 119.49 137.006 118.47 137.439 117.61C137.872 116.743 138.476 116.077 139.249 115.61C140.029 115.137 140.942 114.9 141.989 114.9C143.076 114.9 143.999 115.15 144.759 115.65C145.526 116.15 146.099 116.863 146.479 117.79C146.866 118.717 147.032 119.82 146.979 121.1H145.179V120.46C145.159 119.133 144.889 118.143 144.369 117.49C143.849 116.83 143.076 116.5 142.049 116.5C140.949 116.5 140.112 116.853 139.539 117.56C138.966 118.267 138.679 119.28 138.679 120.6C138.679 121.873 138.966 122.86 139.539 123.56C140.112 124.26 140.929 124.61 141.989 124.61C142.702 124.61 143.322 124.447 143.849 124.12C144.376 123.793 144.789 123.323 145.089 122.71L146.799 123.3C146.379 124.253 145.746 124.993 144.899 125.52C144.059 126.04 143.116 126.3 142.069 126.3ZM138.079 121.1V119.67H146.059V121.1H138.079ZM149.235 126V115.2H150.825V117.81L150.565 117.47C150.692 117.137 150.855 116.83 151.055 116.55C151.262 116.27 151.492 116.04 151.745 115.86C152.025 115.633 152.342 115.46 152.695 115.34C153.049 115.22 153.409 115.15 153.775 115.13C154.142 115.103 154.485 115.127 154.805 115.2V116.87C154.432 116.77 154.022 116.743 153.575 116.79C153.129 116.837 152.715 117 152.335 117.28C151.989 117.527 151.719 117.827 151.525 118.18C151.339 118.533 151.209 118.917 151.135 119.33C151.062 119.737 151.025 120.153 151.025 120.58V126H149.235ZM159.646 126L155.726 115.2H157.526L160.556 123.73L163.576 115.2H165.386L161.466 126H159.646ZM167.425 113.29V111.45H169.205V113.29H167.425ZM167.425 126V115.2H169.205V126H167.425ZM176.786 126.3C175.692 126.3 174.762 126.057 173.996 125.57C173.236 125.077 172.656 124.4 172.256 123.54C171.856 122.68 171.649 121.7 171.636 120.6C171.649 119.473 171.859 118.483 172.266 117.63C172.679 116.77 173.269 116.1 174.036 115.62C174.802 115.14 175.726 114.9 176.806 114.9C177.946 114.9 178.926 115.18 179.746 115.74C180.572 116.3 181.126 117.067 181.406 118.04L179.646 118.57C179.419 117.943 179.049 117.457 178.536 117.11C178.029 116.763 177.446 116.59 176.786 116.59C176.046 116.59 175.436 116.763 174.956 117.11C174.476 117.45 174.119 117.923 173.886 118.53C173.652 119.13 173.532 119.82 173.526 120.6C173.539 121.8 173.816 122.77 174.356 123.51C174.902 124.243 175.712 124.61 176.786 124.61C177.492 124.61 178.079 124.45 178.546 124.13C179.012 123.803 179.366 123.333 179.606 122.72L181.406 123.19C181.032 124.197 180.449 124.967 179.656 125.5C178.862 126.033 177.906 126.3 176.786 126.3ZM187.864 126.3C186.804 126.3 185.877 126.067 185.084 125.6C184.297 125.127 183.684 124.47 183.244 123.63C182.804 122.783 182.584 121.797 182.584 120.67C182.584 119.49 182.8 118.47 183.234 117.61C183.667 116.743 184.27 116.077 185.044 115.61C185.824 115.137 186.737 114.9 187.784 114.9C188.87 114.9 189.794 115.15 190.554 115.65C191.32 116.15 191.894 116.863 192.274 117.79C192.66 118.717 192.827 119.82 192.774 121.1H190.974V120.46C190.954 119.133 190.684 118.143 190.164 117.49C189.644 116.83 188.87 116.5 187.844 116.5C186.744 116.5 185.907 116.853 185.334 117.56C184.76 118.267 184.474 119.28 184.474 120.6C184.474 121.873 184.76 122.86 185.334 123.56C185.907 124.26 186.724 124.61 187.784 124.61C188.497 124.61 189.117 124.447 189.644 124.12C190.17 123.793 190.584 123.323 190.884 122.71L192.594 123.3C192.174 124.253 191.54 124.993 190.694 125.52C189.854 126.04 188.91 126.3 187.864 126.3ZM183.874 121.1V119.67H191.854V121.1H183.874ZM199.11 126.29C197.823 126.29 196.767 126.01 195.94 125.45C195.12 124.883 194.617 124.093 194.43 123.08L196.25 122.79C196.397 123.377 196.733 123.843 197.26 124.19C197.787 124.53 198.44 124.7 199.22 124.7C199.96 124.7 200.54 124.547 200.96 124.24C201.38 123.933 201.59 123.517 201.59 122.99C201.59 122.683 201.52 122.437 201.38 122.25C201.24 122.057 200.95 121.877 200.51 121.71C200.077 121.543 199.42 121.343 198.54 121.11C197.587 120.857 196.837 120.593 196.29 120.32C195.743 120.047 195.353 119.73 195.12 119.37C194.887 119.01 194.77 118.573 194.77 118.06C194.77 117.427 194.943 116.873 195.29 116.4C195.637 115.92 196.12 115.55 196.74 115.29C197.367 115.03 198.093 114.9 198.92 114.9C199.74 114.9 200.473 115.03 201.12 115.29C201.767 115.55 202.287 115.92 202.68 116.4C203.08 116.873 203.317 117.427 203.39 118.06L201.57 118.39C201.483 117.81 201.203 117.353 200.73 117.02C200.263 116.687 199.66 116.51 198.92 116.49C198.22 116.463 197.65 116.587 197.21 116.86C196.777 117.133 196.56 117.503 196.56 117.97C196.56 118.23 196.64 118.453 196.8 118.64C196.967 118.827 197.27 119.003 197.71 119.17C198.157 119.337 198.803 119.527 199.65 119.74C200.603 119.98 201.353 120.243 201.9 120.53C202.453 120.81 202.847 121.143 203.08 121.53C203.313 121.91 203.43 122.38 203.43 122.94C203.43 123.98 203.047 124.8 202.28 125.4C201.513 125.993 200.457 126.29 199.11 126.29Z" fill="white" fill-opacity="0.5"/>
</svg>
