<svg width="124" height="56" viewBox="0 0 124 56" fill="none" xmlns="http://www.w3.org/2000/svg">
<rect x="0.943604" width="123" height="56" rx="12" fill="#CEA561"/>
<path d="M38.1516 34.24C37.3356 34.24 36.5996 34.1013 35.9436 33.824C35.2929 33.5467 34.7543 33.152 34.3276 32.64C33.9063 32.1227 33.6316 31.512 33.5036 30.808L34.9756 30.576C35.1623 31.3013 35.5489 31.8693 36.1356 32.28C36.7276 32.6853 37.4236 32.888 38.2236 32.888C38.7409 32.888 39.2076 32.808 39.6236 32.648C40.0449 32.4827 40.3783 32.248 40.6236 31.944C40.8689 31.64 40.9916 31.28 40.9916 30.864C40.9916 30.608 40.9463 30.3893 40.8556 30.208C40.7703 30.0213 40.6503 29.864 40.4956 29.736C40.3463 29.6027 40.1756 29.4907 39.9836 29.4C39.7916 29.3093 39.5916 29.2347 39.3836 29.176L36.4476 28.304C36.1276 28.208 35.8183 28.088 35.5196 27.944C35.2209 27.7947 34.9543 27.6107 34.7196 27.392C34.4849 27.168 34.2983 26.9013 34.1596 26.592C34.0209 26.2773 33.9516 25.9067 33.9516 25.48C33.9516 24.7973 34.1276 24.216 34.4796 23.736C34.8369 23.2507 35.3196 22.88 35.9276 22.624C36.5356 22.368 37.2209 22.2427 37.9836 22.248C38.7569 22.2533 39.4476 22.392 40.0556 22.664C40.6689 22.9307 41.1756 23.3147 41.5756 23.816C41.9809 24.3173 42.2529 24.9173 42.3916 25.616L40.8796 25.88C40.7996 25.4107 40.6209 25.008 40.3436 24.672C40.0716 24.3307 39.7303 24.0693 39.3196 23.888C38.9089 23.7013 38.4583 23.6053 37.9676 23.6C37.4983 23.5947 37.0743 23.6693 36.6956 23.824C36.3169 23.9787 36.0156 24.1947 35.7916 24.472C35.5676 24.744 35.4556 25.0587 35.4556 25.416C35.4556 25.768 35.5569 26.0533 35.7596 26.272C35.9623 26.4853 36.2103 26.656 36.5036 26.784C36.8023 26.9067 37.0929 27.008 37.3756 27.088L39.5676 27.72C39.8183 27.7893 40.1063 27.8853 40.4316 28.008C40.7623 28.1307 41.0823 28.304 41.3916 28.528C41.7009 28.7467 41.9569 29.04 42.1596 29.408C42.3623 29.7707 42.4636 30.2293 42.4636 30.784C42.4636 31.3387 42.3516 31.832 42.1276 32.264C41.9089 32.696 41.6023 33.0587 41.2076 33.352C40.8129 33.64 40.3543 33.8587 39.8316 34.008C39.3089 34.1627 38.7489 34.24 38.1516 34.24ZM44.5017 23.832V22.36H45.9257V23.832H44.5017ZM44.5017 34V25.36H45.9257V34H44.5017ZM52.0221 38.08C51.5688 38.08 51.1261 38.0107 50.6941 37.872C50.2621 37.7333 49.8648 37.5227 49.5021 37.24C49.1448 36.9627 48.8461 36.6107 48.6061 36.184L49.9101 35.496C50.1234 35.9173 50.4248 36.224 50.8141 36.416C51.2088 36.608 51.6141 36.704 52.0301 36.704C52.5794 36.704 53.0354 36.6027 53.3981 36.4C53.7608 36.2027 54.0274 35.9067 54.1981 35.512C54.3741 35.1173 54.4594 34.6267 54.4541 34.04V31.68H54.6221V25.36H55.8861V34.056C55.8861 34.2907 55.8781 34.5173 55.8621 34.736C55.8514 34.9547 55.8248 35.1707 55.7821 35.384C55.6701 35.9973 55.4488 36.5013 55.1181 36.896C54.7874 37.296 54.3608 37.592 53.8381 37.784C53.3154 37.9813 52.7101 38.08 52.0221 38.08ZM51.9181 34.24C51.1128 34.24 50.4221 34.04 49.8461 33.64C49.2701 33.2347 48.8248 32.688 48.5101 32C48.2008 31.312 48.0461 30.536 48.0461 29.672C48.0461 28.808 48.2008 28.032 48.5101 27.344C48.8248 26.656 49.2701 26.1147 49.8461 25.72C50.4221 25.32 51.1101 25.12 51.9101 25.12C52.7261 25.12 53.4114 25.3173 53.9661 25.712C54.5208 26.1067 54.9394 26.648 55.2221 27.336C55.5101 28.024 55.6541 28.8027 55.6541 29.672C55.6541 30.5307 55.5101 31.3067 55.2221 32C54.9394 32.688 54.5208 33.2347 53.9661 33.64C53.4114 34.04 52.7288 34.24 51.9181 34.24ZM52.0941 32.936C52.6754 32.936 53.1528 32.7973 53.5261 32.52C53.8994 32.2373 54.1741 31.8507 54.3501 31.36C54.5314 30.864 54.6221 30.3013 54.6221 29.672C54.6221 29.032 54.5314 28.4693 54.3501 27.984C54.1741 27.4933 53.9021 27.112 53.5341 26.84C53.1661 26.5627 52.6994 26.424 52.1341 26.424C51.5474 26.424 51.0621 26.568 50.6781 26.856C50.2994 27.144 50.0168 27.5333 49.8301 28.024C49.6488 28.5147 49.5581 29.064 49.5581 29.672C49.5581 30.2853 49.6514 30.84 49.8381 31.336C50.0248 31.8267 50.3048 32.216 50.6781 32.504C51.0568 32.792 51.5288 32.936 52.0941 32.936ZM64.4719 34V29.672C64.4719 29.2613 64.4345 28.8667 64.3599 28.488C64.2905 28.1093 64.1652 27.7707 63.9839 27.472C63.8079 27.168 63.5679 26.928 63.2639 26.752C62.9652 26.576 62.5865 26.488 62.1279 26.488C61.7705 26.488 61.4452 26.5493 61.1519 26.672C60.8639 26.7893 60.6159 26.9707 60.4079 27.216C60.1999 27.4613 60.0372 27.7707 59.9199 28.144C59.8079 28.512 59.7519 28.9467 59.7519 29.448L58.8159 29.16C58.8159 28.3227 58.9652 27.6053 59.2639 27.008C59.5679 26.4053 59.9919 25.944 60.5359 25.624C61.0852 25.2987 61.7305 25.136 62.4719 25.136C63.0319 25.136 63.5092 25.224 63.9039 25.4C64.2985 25.576 64.6265 25.8107 64.8879 26.104C65.1492 26.392 65.3545 26.7173 65.5039 27.08C65.6532 27.4373 65.7572 27.8027 65.8159 28.176C65.8799 28.544 65.9119 28.8933 65.9119 29.224V34H64.4719ZM58.3119 34V25.36H59.5919V27.672H59.7519V34H58.3119ZM76.1389 34.24C75.2482 34.24 74.4615 34.056 73.7789 33.688C73.0962 33.32 72.5602 32.8053 72.1709 32.144C71.7869 31.4773 71.5949 30.696 71.5949 29.8V22.488L73.0349 22.48V29.68C73.0349 30.224 73.1255 30.6987 73.3069 31.104C73.4935 31.504 73.7389 31.8373 74.0429 32.104C74.3469 32.3707 74.6802 32.5707 75.0429 32.704C75.4109 32.832 75.7762 32.896 76.1389 32.896C76.5069 32.896 76.8749 32.8293 77.2429 32.696C77.6109 32.5627 77.9442 32.3653 78.2429 32.104C78.5469 31.8373 78.7895 31.5013 78.9709 31.096C79.1522 30.6907 79.2429 30.2187 79.2429 29.68V22.48H80.6829V29.8C80.6829 30.6907 80.4882 31.4693 80.0989 32.136C79.7149 32.8027 79.1815 33.32 78.4989 33.688C77.8162 34.056 77.0295 34.24 76.1389 34.24ZM87.091 34.24C86.2803 34.24 85.5976 34.04 85.043 33.64C84.4883 33.2347 84.067 32.688 83.779 32C83.4963 31.3067 83.355 30.5307 83.355 29.672C83.355 28.8027 83.4963 28.024 83.779 27.336C84.067 26.648 84.4883 26.1067 85.043 25.712C85.603 25.3173 86.2883 25.12 87.099 25.12C87.899 25.12 88.587 25.32 89.163 25.72C89.7443 26.1147 90.1896 26.656 90.499 27.344C90.8083 28.032 90.963 28.808 90.963 29.672C90.963 30.536 90.8083 31.312 90.499 32C90.1896 32.688 89.7443 33.2347 89.163 33.64C88.587 34.04 87.8963 34.24 87.091 34.24ZM83.115 37.84V25.36H84.387V31.72H84.547V37.84H83.115ZM86.915 32.936C87.4856 32.936 87.9576 32.792 88.331 32.504C88.7043 32.216 88.9843 31.8267 89.171 31.336C89.3576 30.84 89.451 30.2853 89.451 29.672C89.451 29.064 89.3576 28.5147 89.171 28.024C88.9896 27.5333 88.707 27.144 88.323 26.856C87.9443 26.568 87.4616 26.424 86.875 26.424C86.315 26.424 85.851 26.5627 85.483 26.84C85.115 27.112 84.8403 27.4933 84.659 27.984C84.4776 28.4693 84.387 29.032 84.387 29.672C84.387 30.3013 84.475 30.864 84.651 31.36C84.8323 31.8507 85.1096 32.2373 85.483 32.52C85.8563 32.7973 86.3336 32.936 86.915 32.936Z" fill="#151515"/>
</svg>
