<svg width="235" height="56" viewBox="0 0 235 56" fill="none" xmlns="http://www.w3.org/2000/svg">
<circle cx="16" cy="27.9996" r="16" fill="#CEA561"/>
<path d="M19.5537 33.3311C20.0252 33.3311 20.4774 33.5184 20.8108 33.8518C21.1442 34.1852 21.3315 34.6374 21.3315 35.1089C21.3315 35.5804 21.1442 36.0325 20.8108 36.3659C20.4774 36.6993 20.0252 36.8866 19.5537 36.8866C19.0822 36.8866 18.63 36.6993 18.2966 36.3659C17.9632 36.0325 17.7759 35.5804 17.7759 35.1089C17.7759 34.6374 17.9632 34.1852 18.2966 33.8518C18.63 33.5184 19.0822 33.3311 19.5537 33.3311ZM19.5537 34.22C19.3179 34.22 19.0918 34.3136 18.9251 34.4803C18.7584 34.647 18.6648 34.8731 18.6648 35.1089C18.6648 35.3446 18.7584 35.5707 18.9251 35.7374C19.0918 35.9041 19.3179 35.9978 19.5537 35.9978C19.7894 35.9978 20.0155 35.9041 20.1822 35.7374C20.3489 35.5707 20.4426 35.3446 20.4426 35.1089C20.4426 34.8731 20.3489 34.647 20.1822 34.4803C20.0155 34.3136 19.7894 34.22 19.5537 34.22ZM11.5537 33.3311C12.0252 33.3311 12.4774 33.5184 12.8108 33.8518C13.1442 34.1852 13.3315 34.6374 13.3315 35.1089C13.3315 35.5804 13.1442 36.0325 12.8108 36.3659C12.4774 36.6993 12.0252 36.8866 11.5537 36.8866C11.0822 36.8866 10.63 36.6993 10.2966 36.3659C9.9632 36.0325 9.7759 35.5804 9.7759 35.1089C9.7759 34.6374 9.9632 34.1852 10.2966 33.8518C10.63 33.5184 11.0822 33.3311 11.5537 33.3311ZM11.5537 34.22C11.3179 34.22 11.0918 34.3136 10.9251 34.4803C10.7584 34.647 10.6648 34.8731 10.6648 35.1089C10.6648 35.3446 10.7584 35.5707 10.9251 35.7374C11.0918 35.9041 11.3179 35.9978 11.5537 35.9978C11.7894 35.9978 12.0155 35.9041 12.1822 35.7374C12.3489 35.5707 12.4426 35.3446 12.4426 35.1089C12.4426 34.8731 12.3489 34.647 12.1822 34.4803C12.0155 34.3136 11.7894 34.22 11.5537 34.22ZM21.3315 22.6644H9.12701L11.3937 27.9977H18.6648C18.9581 27.9977 19.2159 27.8555 19.3759 27.6422L22.0426 24.0866C22.1581 23.9355 22.2204 23.7489 22.2204 23.5533C22.2204 23.3176 22.1267 23.0915 21.96 22.9248C21.7933 22.7581 21.5672 22.6644 21.3315 22.6644ZM18.6648 28.8866H11.4381L10.7537 30.2733L10.6648 30.6644C10.6648 30.9002 10.7584 31.1263 10.9251 31.293C11.0918 31.4597 11.3179 31.5533 11.5537 31.5533H21.3315V32.4422H11.5537C11.0822 32.4422 10.63 32.2549 10.2966 31.9215C9.9632 31.5881 9.7759 31.1359 9.7759 30.6644C9.77563 30.3628 9.8521 30.0661 9.99812 29.8022L10.6381 28.4955L7.41145 20.8866H6.22034V19.9977H7.99812L8.75367 21.7755H21.3315C21.803 21.7755 22.2551 21.9628 22.5885 22.2962C22.9219 22.6296 23.1092 23.0818 23.1092 23.5533C23.1092 23.9977 22.9581 24.3711 22.7092 24.6733L20.1226 28.1311C19.8026 28.5844 19.2692 28.8866 18.6648 28.8866Z" fill="#151515"/>
<circle cx="72" cy="27.9996" r="16" fill="#CEA561"/>
<path d="M79.9981 35.9978L76.1377 32.1373M76.1377 32.1373C76.798 31.477 77.3218 30.693 77.6792 29.8302C78.0366 28.9675 78.2205 28.0427 78.2205 27.1089C78.2205 26.175 78.0366 25.2503 77.6792 24.3875C77.3218 23.5247 76.798 22.7408 76.1377 22.0804C75.4773 21.4201 74.6934 20.8963 73.8306 20.5389C72.9678 20.1815 72.0431 19.9976 71.1092 19.9976C70.1753 19.9976 69.2506 20.1815 68.3878 20.5389C67.5251 20.8963 66.7411 21.4201 66.0808 22.0804C64.7471 23.414 63.9979 25.2228 63.9979 27.1089C63.9979 28.9949 64.7471 30.8037 66.0808 32.1373C67.4144 33.4709 69.2232 34.2202 71.1092 34.2202C72.9952 34.2202 74.804 33.4709 76.1377 32.1373Z" stroke="#151515" stroke-linecap="round" stroke-linejoin="round"/>
<rect x="111.944" width="123" height="56" rx="12" fill="#CEA561"/>
<path d="M149.152 34.24C148.336 34.24 147.6 34.1013 146.944 33.824C146.293 33.5467 145.754 33.152 145.328 32.64C144.906 32.1227 144.632 31.512 144.504 30.808L145.976 30.576C146.162 31.3013 146.549 31.8693 147.136 32.28C147.728 32.6853 148.424 32.888 149.224 32.888C149.741 32.888 150.208 32.808 150.624 32.648C151.045 32.4827 151.378 32.248 151.624 31.944C151.869 31.64 151.992 31.28 151.992 30.864C151.992 30.608 151.946 30.3893 151.856 30.208C151.77 30.0213 151.65 29.864 151.496 29.736C151.346 29.6027 151.176 29.4907 150.984 29.4C150.792 29.3093 150.592 29.2347 150.384 29.176L147.448 28.304C147.128 28.208 146.818 28.088 146.52 27.944C146.221 27.7947 145.954 27.6107 145.72 27.392C145.485 27.168 145.298 26.9013 145.16 26.592C145.021 26.2773 144.952 25.9067 144.952 25.48C144.952 24.7973 145.128 24.216 145.48 23.736C145.837 23.2507 146.32 22.88 146.928 22.624C147.536 22.368 148.221 22.2427 148.984 22.248C149.757 22.2533 150.448 22.392 151.056 22.664C151.669 22.9307 152.176 23.3147 152.576 23.816C152.981 24.3173 153.253 24.9173 153.392 25.616L151.88 25.88C151.8 25.4107 151.621 25.008 151.344 24.672C151.072 24.3307 150.73 24.0693 150.32 23.888C149.909 23.7013 149.458 23.6053 148.968 23.6C148.498 23.5947 148.074 23.6693 147.696 23.824C147.317 23.9787 147.016 24.1947 146.792 24.472C146.568 24.744 146.456 25.0587 146.456 25.416C146.456 25.768 146.557 26.0533 146.76 26.272C146.962 26.4853 147.21 26.656 147.504 26.784C147.802 26.9067 148.093 27.008 148.376 27.088L150.568 27.72C150.818 27.7893 151.106 27.8853 151.432 28.008C151.762 28.1307 152.082 28.304 152.392 28.528C152.701 28.7467 152.957 29.04 153.16 29.408C153.362 29.7707 153.464 30.2293 153.464 30.784C153.464 31.3387 153.352 31.832 153.128 32.264C152.909 32.696 152.602 33.0587 152.208 33.352C151.813 33.64 151.354 33.8587 150.832 34.008C150.309 34.1627 149.749 34.24 149.152 34.24ZM155.502 23.832V22.36H156.926V23.832H155.502ZM155.502 34V25.36H156.926V34H155.502ZM163.022 38.08C162.569 38.08 162.126 38.0107 161.694 37.872C161.262 37.7333 160.865 37.5227 160.502 37.24C160.145 36.9627 159.846 36.6107 159.606 36.184L160.91 35.496C161.123 35.9173 161.425 36.224 161.814 36.416C162.209 36.608 162.614 36.704 163.03 36.704C163.579 36.704 164.035 36.6027 164.398 36.4C164.761 36.2027 165.027 35.9067 165.198 35.512C165.374 35.1173 165.459 34.6267 165.454 34.04V31.68H165.622V25.36H166.886V34.056C166.886 34.2907 166.878 34.5173 166.862 34.736C166.851 34.9547 166.825 35.1707 166.782 35.384C166.67 35.9973 166.449 36.5013 166.118 36.896C165.787 37.296 165.361 37.592 164.838 37.784C164.315 37.9813 163.71 38.08 163.022 38.08ZM162.918 34.24C162.113 34.24 161.422 34.04 160.846 33.64C160.27 33.2347 159.825 32.688 159.51 32C159.201 31.312 159.046 30.536 159.046 29.672C159.046 28.808 159.201 28.032 159.51 27.344C159.825 26.656 160.27 26.1147 160.846 25.72C161.422 25.32 162.11 25.12 162.91 25.12C163.726 25.12 164.411 25.3173 164.966 25.712C165.521 26.1067 165.939 26.648 166.222 27.336C166.51 28.024 166.654 28.8027 166.654 29.672C166.654 30.5307 166.51 31.3067 166.222 32C165.939 32.688 165.521 33.2347 164.966 33.64C164.411 34.04 163.729 34.24 162.918 34.24ZM163.094 32.936C163.675 32.936 164.153 32.7973 164.526 32.52C164.899 32.2373 165.174 31.8507 165.35 31.36C165.531 30.864 165.622 30.3013 165.622 29.672C165.622 29.032 165.531 28.4693 165.35 27.984C165.174 27.4933 164.902 27.112 164.534 26.84C164.166 26.5627 163.699 26.424 163.134 26.424C162.547 26.424 162.062 26.568 161.678 26.856C161.299 27.144 161.017 27.5333 160.83 28.024C160.649 28.5147 160.558 29.064 160.558 29.672C160.558 30.2853 160.651 30.84 160.838 31.336C161.025 31.8267 161.305 32.216 161.678 32.504C162.057 32.792 162.529 32.936 163.094 32.936ZM175.472 34V29.672C175.472 29.2613 175.435 28.8667 175.36 28.488C175.291 28.1093 175.165 27.7707 174.984 27.472C174.808 27.168 174.568 26.928 174.264 26.752C173.965 26.576 173.587 26.488 173.128 26.488C172.771 26.488 172.445 26.5493 172.152 26.672C171.864 26.7893 171.616 26.9707 171.408 27.216C171.2 27.4613 171.037 27.7707 170.92 28.144C170.808 28.512 170.752 28.9467 170.752 29.448L169.816 29.16C169.816 28.3227 169.965 27.6053 170.264 27.008C170.568 26.4053 170.992 25.944 171.536 25.624C172.085 25.2987 172.731 25.136 173.472 25.136C174.032 25.136 174.509 25.224 174.904 25.4C175.299 25.576 175.627 25.8107 175.888 26.104C176.149 26.392 176.355 26.7173 176.504 27.08C176.653 27.4373 176.757 27.8027 176.816 28.176C176.88 28.544 176.912 28.8933 176.912 29.224V34H175.472ZM169.312 34V25.36H170.592V27.672H170.752V34H169.312ZM187.139 34.24C186.248 34.24 185.462 34.056 184.779 33.688C184.096 33.32 183.56 32.8053 183.171 32.144C182.787 31.4773 182.595 30.696 182.595 29.8V22.488L184.035 22.48V29.68C184.035 30.224 184.126 30.6987 184.307 31.104C184.494 31.504 184.739 31.8373 185.043 32.104C185.347 32.3707 185.68 32.5707 186.043 32.704C186.411 32.832 186.776 32.896 187.139 32.896C187.507 32.896 187.875 32.8293 188.243 32.696C188.611 32.5627 188.944 32.3653 189.243 32.104C189.547 31.8373 189.79 31.5013 189.971 31.096C190.152 30.6907 190.243 30.2187 190.243 29.68V22.48H191.683V29.8C191.683 30.6907 191.488 31.4693 191.099 32.136C190.715 32.8027 190.182 33.32 189.499 33.688C188.816 34.056 188.03 34.24 187.139 34.24ZM198.091 34.24C197.28 34.24 196.598 34.04 196.043 33.64C195.488 33.2347 195.067 32.688 194.779 32C194.496 31.3067 194.355 30.5307 194.355 29.672C194.355 28.8027 194.496 28.024 194.779 27.336C195.067 26.648 195.488 26.1067 196.043 25.712C196.603 25.3173 197.288 25.12 198.099 25.12C198.899 25.12 199.587 25.32 200.163 25.72C200.744 26.1147 201.19 26.656 201.499 27.344C201.808 28.032 201.963 28.808 201.963 29.672C201.963 30.536 201.808 31.312 201.499 32C201.19 32.688 200.744 33.2347 200.163 33.64C199.587 34.04 198.896 34.24 198.091 34.24ZM194.115 37.84V25.36H195.387V31.72H195.547V37.84H194.115ZM197.915 32.936C198.486 32.936 198.958 32.792 199.331 32.504C199.704 32.216 199.984 31.8267 200.171 31.336C200.358 30.84 200.451 30.2853 200.451 29.672C200.451 29.064 200.358 28.5147 200.171 28.024C199.99 27.5333 199.707 27.144 199.323 26.856C198.944 26.568 198.462 26.424 197.875 26.424C197.315 26.424 196.851 26.5627 196.483 26.84C196.115 27.112 195.84 27.4933 195.659 27.984C195.478 28.4693 195.387 29.032 195.387 29.672C195.387 30.3013 195.475 30.864 195.651 31.36C195.832 31.8507 196.11 32.2373 196.483 32.52C196.856 32.7973 197.334 32.936 197.915 32.936Z" fill="#151515"/>
</svg>
